<svg width="24" height="24" xmlns="http://www.w3.org/2000/svg" fill="currentColor">
 <g>
  <title>Layer 1</title>
  <path d="m21,9a1,1 0 0 1 1,1l0,4a1,1 0 0 1 -1,1l0,1a2,2 0 0 1 -2,2l-15,0a2,2 0 0 1 -2,-2l0,-8a2,2 0 0 1 2,-2l15,0a2,2 0 0 1 2,2l0,1zm-8.775,5.11c0.243,-0.163 0.379,-0.409 0.408,-0.738l0,-1.652l2.432,0.898a1,1 0 0 0 1.285,-0.591c0.191,-0.518 -0.121,-1.066 -0.639,-1.258a381.257,381.257 0 0 1 -3.765,-1.359c-0.441,-0.163 -0.755,-0.005 -1.03,0.204c-0.182,0.14 -0.291,0.408 -0.326,0.806l0.043,1.49l-2.428,-0.877a1,1 0 1 0 -0.68,1.881c1.656,0.606 2.912,1.065 3.77,1.377c0.34,0.124 0.566,0.06 0.93,-0.183l0,0.002z" id="svg_1" fill="#b0b4bc"/>
 </g>

</svg>