<svg width="512" height="512" xmlns="http://www.w3.org/2000/svg" version="1.1" xml:space="preserve">
 <g>
  <title>Layer 1</title>
  <g id="svg_1">
   <path d="m468.7,64l-425.4,0c-6,0 -11.3,5 -11.3,11.1l0,265.7c0,6.2 5.2,11.1 11.3,11.1l425.4,0c6,0 11.3,-5 11.3,-11.1l0,-265.7c0,-6.1 -5.2,-11.1 -11.3,-11.1zm-20.7,256l-384,0l0,-224l384,0l0,224z" id="svg_2" fill="#b0b4bc"/>
   <path d="m302.5,448c28,-0.5 41.5,-3.9 29,-12.5c-12.5,-8.7 -28.5,-15.3 -29,-22.5c-0.3,-3.7 -1.7,-45 -1.7,-45l-44.8,0l-44.8,0c0,0 -1.5,41.3 -1.7,45c-0.5,7.1 -16.5,13.8 -29,22.5c-12.5,8.7 1,12 29,12.5l93,0z" id="svg_3" fill="#b0b4bc"/>
  </g>
 </g>

</svg>