<svg width="24" height="24" xmlns="http://www.w3.org/2000/svg" fill="currentColor">
 <g>
  <title>Layer 1</title>
  <path d="m4,8l0,8l15,0l0,-8l-15,0zm17,1a1,1 0 0 1 1,1l0,4a1,1 0 0 1 -1,1l0,1a2,2 0 0 1 -2,2l-15,0a2,2 0 0 1 -2,-2l0,-8a2,2 0 0 1 2,-2l15,0a2,2 0 0 1 2,2l0,1zm-5.212,3.358a1,1 0 0 1 -1.281,0.597l-3.76,-1.368a1,1 0 0 1 0.685,-1.88l3.759,1.369a1,1 0 0 1 0.597,1.282zm-3.758,1.631a1,1 0 0 1 -1.282,0.598l-3.759,-1.367a1,1 0 0 1 0.684,-1.88l3.759,1.369a1,1 0 0 1 0.598,1.281l0,-0.001zm0.06,-3.342l0,3a1,1 0 1 1 -2,0l0,-3a1,1 0 1 1 2,0z" id="svg_1" fill="#b0b4bc"/>
 </g>

</svg>